<svg xmlns="http://www.w3.org/2000/svg" width="278" height="278" viewBox="0 0 278 278"><title>print</title><g id="Calque_2" data-name="Calque 2"><g id="Calque_1-2" data-name="Calque 1"><g id="pcizjW.tif"><path fill="#ffffff" d="M204.44,278H72.85l-2.52-.34A32.32,32.32,0,0,1,42.42,245.1c0-10.05,0-20.1,0-30.16v-1.15c-3.47,0-6.79.06-10.1,0a42.58,42.58,0,0,1-6-.52A31.92,31.92,0,0,1,.89,189.17C.51,187.46.29,185.71,0,184q0-34.4,0-68.79c.14-.92.26-1.84.42-2.76a31.57,31.57,0,0,1,9.75-18.21,31.21,31.21,0,0,1,21.27-8.65c3.32-.07,6.64,0,10,0h1V84.23q0-25.8,0-51.59a31.5,31.5,0,0,1,8.72-22.4A31.45,31.45,0,0,1,74.95,0H202.38c.47,0,.94,0,1.41,0a29.84,29.84,0,0,1,13.35,3.46c11.57,6.32,17.62,16.06,17.68,29.3.08,17.2,0,34.39,0,51.59v1.19c3,0,5.88-.07,8.75,0a62.51,62.51,0,0,1,8.07.54A31.93,31.93,0,0,1,277.27,111c.31,1.61.49,3.24.73,4.86v67.56c-.14,1.1-.26,2.21-.44,3.3a32.12,32.12,0,0,1-31,27c-3.58.1-7.17,0-10.75,0h-1V215c0,10.11,0,20.22,0,30.32a38.5,38.5,0,0,1-.41,5.53,32.23,32.23,0,0,1-25.29,26.39C207.58,277.59,206,277.76,204.44,278ZM63.83,160.38v1q0,42.11,0,84.22c0,6.43,4.47,11,10.88,11q63.94,0,127.87,0a11.67,11.67,0,0,0,4.6-.94c4.35-1.93,6.29-5.49,6.29-10.2q0-42,0-84v-1Zm149.6-74.86c0-.31,0-.54,0-.77q0-26.28,0-52.56a10.49,10.49,0,0,0-10.88-10.82q-63.94,0-127.87,0A10.51,10.51,0,0,0,63.83,32.28q0,26.15,0,52.3v.95ZM229.8,139a16.05,16.05,0,1,0-16-16.08A16.13,16.13,0,0,0,229.8,139Z"/><path fill="#ffffff" d="M85.58,203.05V181.79H192.39v21.26Z"/><path fill="#ffffff" d="M85.6,213.83h74.67v21.28H85.6Z"/></g></g></g></svg>
